<?xml version="1.0" encoding="utf-8" standalone="no"?>
<!DOCTYPE svg PUBLIC "-//W3C//DTD SVG 1.1//EN"
  "http://www.w3.org/Graphics/SVG/1.1/DTD/svg11.dtd">
<svg xmlns:xlink="http://www.w3.org/1999/xlink" width="864pt" height="288pt" viewBox="0 0 864 288" xmlns="http://www.w3.org/2000/svg" version="1.1">
 <metadata>
  <rdf:RDF xmlns:dc="http://purl.org/dc/elements/1.1/" xmlns:cc="http://creativecommons.org/ns#" xmlns:rdf="http://www.w3.org/1999/02/22-rdf-syntax-ns#">
   <cc:Work>
    <dc:type rdf:resource="http://purl.org/dc/dcmitype/StillImage"/>
    <dc:date>2021-12-06T12:53:41.976306</dc:date>
    <dc:format>image/svg+xml</dc:format>
    <dc:creator>
     <cc:Agent>
      <dc:title>Matplotlib v3.5.0, https://matplotlib.org/</dc:title>
     </cc:Agent>
    </dc:creator>
   </cc:Work>
  </rdf:RDF>
 </metadata>
 <defs>
  <style type="text/css">*{stroke-linejoin: round; stroke-linecap: butt}</style>
 </defs>
 <g id="figure_1">
  <g id="patch_1">
   <path d="M 0 288 
L 864 288 
L 864 0 
L 0 0 
z
" style="fill: #ffffff"/>
  </g>
  <g id="axes_1">
   <g id="line2d_1">
    <path d="M 138.436364 246.24 
L 341.345455 246.24 
" clip-path="url(#pd9fbedf685)" style="fill: none; stroke: #adb5bd; stroke-width: -20; stroke-linecap: square"/>
   </g>
   <g id="line2d_2">
    <path d="M 138.436364 246.24 
L 341.345455 44.64 
" clip-path="url(#pd9fbedf685)" style="fill: none; stroke: #adb5bd; stroke-width: -20; stroke-linecap: square"/>
   </g>
   <g id="line2d_3">
    <path d="M 341.345455 246.24 
L 341.345455 44.64 
" clip-path="url(#pd9fbedf685)" style="fill: none; stroke: #adb5bd; stroke-width: -20; stroke-linecap: square"/>
   </g>
   <g id="line2d_4">
    <path d="M 341.345455 246.24 
L 544.254545 246.24 
" clip-path="url(#pd9fbedf685)" style="fill: none; stroke: #adb5bd; stroke-width: -20; stroke-linecap: square"/>
   </g>
   <g id="line2d_5">
    <path d="M 341.345455 44.64 
L 544.254545 246.24 
" clip-path="url(#pd9fbedf685)" style="fill: none; stroke: #adb5bd; stroke-width: -20; stroke-linecap: square"/>
   </g>
   <g id="line2d_6">
    <path d="M 341.345455 44.64 
L 544.254545 44.64 
" clip-path="url(#pd9fbedf685)" style="fill: none; stroke: #adb5bd; stroke-width: -20; stroke-linecap: square"/>
   </g>
   <g id="line2d_7">
    <path d="M 544.254545 246.24 
L 544.254545 44.64 
" clip-path="url(#pd9fbedf685)" style="fill: none; stroke: #adb5bd; stroke-width: -20; stroke-linecap: square"/>
   </g>
   <g id="line2d_8">
    <path d="M 544.254545 246.24 
L 747.163636 246.24 
" clip-path="url(#pd9fbedf685)" style="fill: none; stroke: #adb5bd; stroke-width: -20; stroke-linecap: square"/>
   </g>
   <g id="line2d_9">
    <path d="M 544.254545 44.64 
L 747.163636 246.24 
" clip-path="url(#pd9fbedf685)" style="fill: none; stroke: #adb5bd; stroke-width: -20; stroke-linecap: square"/>
   </g>
   <g id="PathCollection_1">
    <defs>
     <path id="m012c923572" d="M 0 12.247449 
C 3.248061 12.247449 6.363528 10.95698 8.660254 8.660254 
C 10.95698 6.363528 12.247449 3.248061 12.247449 0 
C 12.247449 -3.248061 10.95698 -6.363528 8.660254 -8.660254 
C 6.363528 -10.95698 3.248061 -12.247449 0 -12.247449 
C -3.248061 -12.247449 -6.363528 -10.95698 -8.660254 -8.660254 
C -10.95698 -6.363528 -12.247449 -3.248061 -12.247449 0 
C -12.247449 3.248061 -10.95698 6.363528 -8.660254 8.660254 
C -6.363528 10.95698 -3.248061 12.247449 0 12.247449 
z
" style="stroke: #f1f3f5"/>
    </defs>
    <g clip-path="url(#pd9fbedf685)">
     <use xlink:href="#m012c923572" x="138.436364" y="246.24" style="fill: #f1f3f5; stroke: #f1f3f5"/>
     <use xlink:href="#m012c923572" x="341.345455" y="246.24" style="fill: #f1f3f5; stroke: #f1f3f5"/>
     <use xlink:href="#m012c923572" x="341.345455" y="44.64" style="fill: #f1f3f5; stroke: #f1f3f5"/>
     <use xlink:href="#m012c923572" x="544.254545" y="246.24" style="fill: #f1f3f5; stroke: #f1f3f5"/>
     <use xlink:href="#m012c923572" x="544.254545" y="44.64" style="fill: #f1f3f5; stroke: #f1f3f5"/>
     <use xlink:href="#m012c923572" x="747.163636" y="246.24" style="fill: #f1f3f5; stroke: #f1f3f5"/>
    </g>
   </g>
   <g id="text_1">
    <!-- 1 -->
    <g style="fill: #212529" transform="translate(133.363636 252.96)scale(0.12 -0.12)">
     <defs>
      <path id="DejaVuSans-Bold-31" d="M 750 831 
L 1813 831 
L 1813 3847 
L 722 3622 
L 722 4441 
L 1806 4666 
L 2950 4666 
L 2950 831 
L 4013 831 
L 4013 0 
L 750 0 
L 750 831 
z
" transform="scale(0.015625)"/>
     </defs>
     <use xlink:href="#DejaVuSans-Bold-31"/>
    </g>
   </g>
   <g id="text_2">
    <!-- 2 -->
    <g style="fill: #212529" transform="translate(336.272727 252.96)scale(0.12 -0.12)">
     <defs>
      <path id="DejaVuSans-Bold-32" d="M 1844 884 
L 3897 884 
L 3897 0 
L 506 0 
L 506 884 
L 2209 2388 
Q 2438 2594 2547 2791 
Q 2656 2988 2656 3200 
Q 2656 3528 2436 3728 
Q 2216 3928 1850 3928 
Q 1569 3928 1234 3808 
Q 900 3688 519 3450 
L 519 4475 
Q 925 4609 1322 4679 
Q 1719 4750 2100 4750 
Q 2938 4750 3402 4381 
Q 3866 4013 3866 3353 
Q 3866 2972 3669 2642 
Q 3472 2313 2841 1759 
L 1844 884 
z
" transform="scale(0.015625)"/>
     </defs>
     <use xlink:href="#DejaVuSans-Bold-32"/>
    </g>
   </g>
   <g id="text_3">
    <!-- 3 -->
    <g style="fill: #212529" transform="translate(336.272727 51.36)scale(0.12 -0.12)">
     <defs>
      <path id="DejaVuSans-Bold-33" d="M 2981 2516 
Q 3453 2394 3698 2092 
Q 3944 1791 3944 1325 
Q 3944 631 3412 270 
Q 2881 -91 1863 -91 
Q 1503 -91 1142 -33 
Q 781 25 428 141 
L 428 1069 
Q 766 900 1098 814 
Q 1431 728 1753 728 
Q 2231 728 2486 893 
Q 2741 1059 2741 1369 
Q 2741 1688 2480 1852 
Q 2219 2016 1709 2016 
L 1228 2016 
L 1228 2791 
L 1734 2791 
Q 2188 2791 2409 2933 
Q 2631 3075 2631 3366 
Q 2631 3634 2415 3781 
Q 2200 3928 1806 3928 
Q 1516 3928 1219 3862 
Q 922 3797 628 3669 
L 628 4550 
Q 984 4650 1334 4700 
Q 1684 4750 2022 4750 
Q 2931 4750 3382 4451 
Q 3834 4153 3834 3553 
Q 3834 3144 3618 2883 
Q 3403 2622 2981 2516 
z
" transform="scale(0.015625)"/>
     </defs>
     <use xlink:href="#DejaVuSans-Bold-33"/>
    </g>
   </g>
   <g id="text_4">
    <!-- 4 -->
    <g style="fill: #212529" transform="translate(539.181818 252.96)scale(0.12 -0.12)">
     <defs>
      <path id="DejaVuSans-Bold-34" d="M 2356 3675 
L 1038 1722 
L 2356 1722 
L 2356 3675 
z
M 2156 4666 
L 3494 4666 
L 3494 1722 
L 4159 1722 
L 4159 850 
L 3494 850 
L 3494 0 
L 2356 0 
L 2356 850 
L 288 850 
L 288 1881 
L 2156 4666 
z
" transform="scale(0.015625)"/>
     </defs>
     <use xlink:href="#DejaVuSans-Bold-34"/>
    </g>
   </g>
   <g id="text_5">
    <!-- 5 -->
    <g style="fill: #212529" transform="translate(539.181818 51.36)scale(0.12 -0.12)">
     <defs>
      <path id="DejaVuSans-Bold-35" d="M 678 4666 
L 3669 4666 
L 3669 3781 
L 1638 3781 
L 1638 3059 
Q 1775 3097 1914 3117 
Q 2053 3138 2203 3138 
Q 3056 3138 3531 2711 
Q 4006 2284 4006 1522 
Q 4006 766 3489 337 
Q 2972 -91 2053 -91 
Q 1656 -91 1267 -14 
Q 878 63 494 219 
L 494 1166 
Q 875 947 1217 837 
Q 1559 728 1863 728 
Q 2300 728 2551 942 
Q 2803 1156 2803 1522 
Q 2803 1891 2551 2103 
Q 2300 2316 1863 2316 
Q 1603 2316 1309 2248 
Q 1016 2181 678 2041 
L 678 4666 
z
" transform="scale(0.015625)"/>
     </defs>
     <use xlink:href="#DejaVuSans-Bold-35"/>
    </g>
   </g>
   <g id="text_6">
    <!-- 6 -->
    <g style="fill: #212529" transform="translate(742.090909 252.96)scale(0.12 -0.12)">
     <defs>
      <path id="DejaVuSans-Bold-36" d="M 2316 2303 
Q 2000 2303 1842 2098 
Q 1684 1894 1684 1484 
Q 1684 1075 1842 870 
Q 2000 666 2316 666 
Q 2634 666 2792 870 
Q 2950 1075 2950 1484 
Q 2950 1894 2792 2098 
Q 2634 2303 2316 2303 
z
M 3803 4544 
L 3803 3681 
Q 3506 3822 3243 3889 
Q 2981 3956 2731 3956 
Q 2194 3956 1894 3657 
Q 1594 3359 1544 2772 
Q 1750 2925 1990 3001 
Q 2231 3078 2516 3078 
Q 3231 3078 3670 2659 
Q 4109 2241 4109 1563 
Q 4109 813 3618 361 
Q 3128 -91 2303 -91 
Q 1394 -91 895 523 
Q 397 1138 397 2266 
Q 397 3422 980 4083 
Q 1563 4744 2578 4744 
Q 2900 4744 3203 4694 
Q 3506 4644 3803 4544 
z
" transform="scale(0.015625)"/>
     </defs>
     <use xlink:href="#DejaVuSans-Bold-36"/>
    </g>
   </g>
  </g>
 </g>
 <defs>
  <clipPath id="pd9fbedf685">
   <rect x="108" y="34.56" width="669.6" height="221.76"/>
  </clipPath>
 </defs>
</svg>
